<svg width="32" height="32" viewBox="0 0 32 32" fill="none" xmlns="http://www.w3.org/2000/svg">
<path d="M25.875 0.625H6.125C3.08744 0.625 0.625 3.08744 0.625 6.125V25.875C0.625 28.9126 3.08744 31.375 6.125 31.375H16C16 31.367 16 24.8203 16 19.0938H12.3125V14.6559H16V11.4054C16 9.32669 16.9659 6.09675 21.2629 6.09675H25.9202V10.4505C25.9202 10.4505 22.8232 10.4505 22.3738 10.4505C21.8964 10.4505 21.2499 10.6749 21.2499 11.6578V14.6278H25.9482L25.4988 19.0938H21.25C21.25 24.7642 21.25 31.367 21.25 31.375H25.875C28.9126 31.375 31.375 28.9126 31.375 25.875V6.125C31.375 3.08744 28.9126 0.625 25.875 0.625Z" fill="#6E87F5"/>
<path d="M16 24.7184C15.6548 24.7184 15.375 24.4386 15.375 24.0934V24.0884C15.375 24.0876 15.375 24.0867 15.375 24.0859C15.375 24.0851 15.375 24.0842 15.375 24.0834C15.375 23.7382 15.6548 23.4584 16 23.4584C16.3452 23.4584 16.625 23.7382 16.625 24.0834C16.625 24.0842 16.625 24.0851 16.625 24.0859C16.625 24.0867 16.625 24.0875 16.625 24.0884C16.625 24.0892 16.625 24.09 16.625 24.0909C16.625 24.0917 16.625 24.0925 16.625 24.0934C16.625 24.4386 16.3452 24.7184 16 24.7184Z" fill="black"/>
<path d="M25.875 32H21.25C20.9048 32 20.625 31.7202 20.625 31.375V19.0938C20.625 18.7486 20.9048 18.4688 21.25 18.4688H24.9336L25.2572 15.2528H21.25C20.9048 15.2528 20.625 14.973 20.625 14.6278V11.6578C20.625 10.3054 21.5671 9.8255 22.3738 9.8255H25.2952V6.72175H21.2629C17.0769 6.72175 16.6249 9.99712 16.6249 11.4054V14.6558C16.6249 15.001 16.3451 15.2808 15.9999 15.2808H12.9374V18.4688H15.9999C16.3451 18.4688 16.6249 18.7486 16.6249 19.0938V21.5C16.6249 21.8452 16.3451 22.125 15.9999 22.125C15.6547 22.125 15.3749 21.8452 15.3749 21.5V19.7188H12.3124C11.9672 19.7188 11.6874 19.4389 11.6874 19.0938V14.6559C11.6874 14.3107 11.9672 14.0309 12.3124 14.0309H15.3749V11.4054C15.3749 10.5692 15.5231 8.96319 16.5151 7.60331C17.2244 6.63094 18.6239 5.47181 21.2629 5.47181H25.9202C26.2654 5.47181 26.5452 5.75163 26.5452 6.09681V10.4506C26.5452 10.7957 26.2654 11.0756 25.9202 11.0756H22.3738C22.0102 11.0756 21.875 11.2334 21.875 11.6578V14.0029H25.9482C26.1249 14.0029 26.2933 14.0776 26.4118 14.2086C26.5303 14.3396 26.5878 14.5146 26.5701 14.6904L26.1207 19.1564C26.0886 19.4757 25.8198 19.7188 25.4988 19.7188H21.875V30.75H25.875C28.5631 30.75 30.75 28.5631 30.75 25.875V6.125C30.75 3.43694 28.5631 1.25 25.875 1.25H6.125C3.43694 1.25 1.25 3.43694 1.25 6.125V25.875C1.25 28.5631 3.43694 30.75 6.125 30.75H15.375V26.5312C15.375 26.1861 15.6548 25.9062 16 25.9062C16.3452 25.9062 16.625 26.1861 16.625 26.5312V31.375C16.625 31.7202 16.3452 32 16 32H6.125C2.74763 32 0 29.2524 0 25.875V6.125C0 2.74763 2.74763 0 6.125 0H25.875C29.2524 0 32 2.74763 32 6.125V25.875C32 29.2524 29.2524 32 25.875 32Z" fill="black"/>
<path d="M3.625 12.875C3.27981 12.875 3 12.5952 3 12.25V7.03125C3 6.68606 3.27981 6.40625 3.625 6.40625C3.97019 6.40625 4.25 6.68606 4.25 7.03125V12.25C4.25 12.5952 3.97019 12.875 3.625 12.875Z" fill="black"/>
<path d="M3.625 15.5938C3.27981 15.5938 3 15.314 3 14.9688V14.9614C3 14.6162 3.27981 14.3364 3.625 14.3364C3.97019 14.3364 4.25 14.6162 4.25 14.9614V14.9688C4.25 15.314 3.97019 15.5938 3.625 15.5938Z" fill="black"/>
</svg>
