<svg width="168" height="47" viewBox="0 0 168 47" fill="none" xmlns="http://www.w3.org/2000/svg">
<path d="M33 0L61.5788 11.75V35.25L33 47L4.42116 35.25V11.75L33 0Z" fill="white" fill-opacity="0.9"/>
<path d="M25.9604 24.0884C25.9604 26.3211 25.3234 28.0312 24.0493 29.2188C22.7814 30.4062 20.9476 31 18.5479 31H14.707V17.4365H18.9653C21.1795 17.4365 22.8989 18.021 24.1235 19.1899C25.3481 20.3589 25.9604 21.9917 25.9604 24.0884ZM22.9731 24.1626C22.9731 21.2495 21.6867 19.793 19.1138 19.793H17.583V28.625H18.8169C21.5877 28.625 22.9731 27.1375 22.9731 24.1626ZM53.398 31H45.5865V17.4365H53.398V19.793H48.4625V22.771H53.0547V25.1274H48.4625V28.625H53.398V31ZM81.0582 27.2334C81.0582 28.458 80.616 29.4229 79.7316 30.1279C78.8533 30.833 77.6287 31.1855 76.0577 31.1855C74.6105 31.1855 73.3302 30.9134 72.2169 30.3691V27.6973C73.1323 28.1055 73.9054 28.3931 74.5363 28.5601C75.1733 28.7271 75.7547 28.8105 76.2804 28.8105C76.9113 28.8105 77.3937 28.6899 77.7277 28.4487C78.0678 28.2075 78.2379 27.8488 78.2379 27.3726C78.2379 27.1066 78.1637 26.8716 78.0153 26.6675C77.8668 26.4572 77.6473 26.2562 77.3566 26.0645C77.0721 25.8727 76.4876 25.5666 75.6031 25.146C74.7744 24.7563 74.1528 24.3822 73.7384 24.0234C73.324 23.6647 72.9931 23.2472 72.7457 22.771C72.4983 22.2948 72.3746 21.7381 72.3746 21.1011C72.3746 19.9012 72.7797 18.958 73.59 18.2715C74.4064 17.585 75.532 17.2417 76.9669 17.2417C77.672 17.2417 78.3431 17.3252 78.9801 17.4922C79.6233 17.6592 80.2944 17.8942 80.9933 18.1973L80.0655 20.4331C79.3419 20.1362 78.742 19.929 78.2657 19.8115C77.7957 19.694 77.3318 19.6353 76.8741 19.6353C76.3299 19.6353 75.9124 19.762 75.6217 20.0156C75.331 20.2692 75.1857 20.6001 75.1857 21.0083C75.1857 21.2619 75.2444 21.4845 75.3619 21.6763C75.4794 21.8618 75.665 22.0443 75.9186 22.2236C76.1783 22.3968 76.7876 22.7122 77.7462 23.1699C79.0141 23.776 79.8831 24.3853 80.3531 24.9976C80.8232 25.6037 81.0582 26.349 81.0582 27.2334ZM100.332 31V17.4365H103.208V31H100.332ZM128.586 23.3833H133.967V30.4155C133.094 30.7 132.272 30.8979 131.499 31.0093C130.732 31.1268 129.946 31.1855 129.142 31.1855C127.095 31.1855 125.53 30.5856 124.448 29.3857C123.372 28.1797 122.834 26.451 122.834 24.1997C122.834 22.0103 123.458 20.3032 124.708 19.0786C125.963 17.854 127.701 17.2417 129.922 17.2417C131.313 17.2417 132.655 17.52 133.948 18.0767L132.992 20.3774C132.003 19.8826 130.973 19.6353 129.903 19.6353C128.66 19.6353 127.664 20.0527 126.916 20.8877C126.167 21.7227 125.793 22.8452 125.793 24.2554C125.793 25.7274 126.093 26.853 126.693 27.6323C127.299 28.4054 128.177 28.792 129.328 28.792C129.928 28.792 130.537 28.7301 131.156 28.6064V25.7769H128.586V23.3833ZM166.052 31H162.397L156.496 20.7393H156.413C156.53 22.5514 156.589 23.8441 156.589 24.6172V31H154.019V17.4365H157.647L163.538 27.5952H163.603C163.51 25.8325 163.464 24.5863 163.464 23.8564V17.4365H166.052V31Z" fill="url(#paint0_linear)"/>
<path d="M68.2969 44L67.7266 42.4141H65.543L64.9844 44H64L66.1367 38.2656H67.1523L69.2891 44H68.2969ZM67.4805 41.6094L66.9453 40.0547C66.9062 39.9505 66.8516 39.7865 66.7812 39.5625C66.7135 39.3385 66.6667 39.1745 66.6406 39.0703C66.5703 39.3906 66.4674 39.7409 66.332 40.1211L65.8164 41.6094H67.4805ZM71.4166 40.9453H72.065C72.4999 40.9453 72.815 40.8646 73.0103 40.7031C73.2056 40.5417 73.3033 40.3021 73.3033 39.9844C73.3033 39.6615 73.1978 39.4297 72.9869 39.2891C72.7759 39.1484 72.4582 39.0781 72.0338 39.0781H71.4166V40.9453ZM71.4166 41.7188V44H70.483V38.2891H72.0963C72.8332 38.2891 73.3788 38.4271 73.733 38.7031C74.0871 38.9792 74.2642 39.3958 74.2642 39.9531C74.2642 40.6641 73.8944 41.1706 73.1548 41.4727L74.7681 44H73.7056L72.3384 41.7188H71.4166ZM78.4698 39.0078C77.9334 39.0078 77.5115 39.1979 77.2042 39.5781C76.8969 39.9583 76.7433 40.4831 76.7433 41.1523C76.7433 41.8529 76.8904 42.3828 77.1847 42.7422C77.4816 43.1016 77.9099 43.2812 78.4698 43.2812C78.712 43.2812 78.9464 43.2578 79.173 43.2109C79.3995 43.1615 79.6352 43.099 79.88 43.0234V43.8242C79.4321 43.9935 78.9243 44.0781 78.3566 44.0781C77.5206 44.0781 76.8787 43.8255 76.4308 43.3203C75.9829 42.8125 75.7589 42.0872 75.7589 41.1445C75.7589 40.5508 75.867 40.0312 76.0831 39.5859C76.3019 39.1406 76.617 38.7995 77.0284 38.5625C77.4399 38.3255 77.923 38.207 78.4777 38.207C79.061 38.207 79.6001 38.3294 80.0948 38.5742L79.7589 39.3516C79.5662 39.2604 79.3618 39.181 79.1456 39.1133C78.9321 39.043 78.7068 39.0078 78.4698 39.0078ZM86.0544 44H85.1169V41.4258H82.4841V44H81.5505V38.2891H82.4841V40.625H85.1169V38.2891H86.0544V44ZM87.9983 44V38.2891H88.9319V44H87.9983ZM92.8563 44H91.9227V39.0898H90.243V38.2891H94.5359V39.0898H92.8563V44ZM99.0853 44H95.8548V38.2891H99.0853V39.0781H96.7884V40.6328H98.9408V41.4141H96.7884V43.207H99.0853V44ZM103.193 39.0078C102.657 39.0078 102.235 39.1979 101.928 39.5781C101.62 39.9583 101.467 40.4831 101.467 41.1523C101.467 41.8529 101.614 42.3828 101.908 42.7422C102.205 43.1016 102.633 43.2812 103.193 43.2812C103.435 43.2812 103.67 43.2578 103.896 43.2109C104.123 43.1615 104.359 43.099 104.603 43.0234V43.8242C104.156 43.9935 103.648 44.0781 103.08 44.0781C102.244 44.0781 101.602 43.8255 101.154 43.3203C100.706 42.8125 100.482 42.0872 100.482 41.1445C100.482 40.5508 100.59 40.0312 100.807 39.5859C101.025 39.1406 101.34 38.7995 101.752 38.5625C102.163 38.3255 102.646 38.207 103.201 38.207C103.784 38.207 104.323 38.3294 104.818 38.5742L104.482 39.3516C104.29 39.2604 104.085 39.181 103.869 39.1133C103.656 39.043 103.43 39.0078 103.193 39.0078ZM108.247 44H107.313V39.0898H105.633V38.2891H109.926V39.0898H108.247V44ZM115.722 38.2891V41.9844C115.722 42.4062 115.631 42.776 115.448 43.0938C115.269 43.4089 115.007 43.6523 114.663 43.8242C114.322 43.9935 113.913 44.0781 113.437 44.0781C112.728 44.0781 112.177 43.8906 111.784 43.5156C111.391 43.1406 111.194 42.625 111.194 41.9688V38.2891H112.132V41.9023C112.132 42.3737 112.241 42.7214 112.46 42.9453C112.679 43.1693 113.015 43.2812 113.468 43.2812C114.348 43.2812 114.788 42.819 114.788 41.8945V38.2891H115.722ZM118.556 40.9453H119.205C119.64 40.9453 119.955 40.8646 120.15 40.7031C120.345 40.5417 120.443 40.3021 120.443 39.9844C120.443 39.6615 120.338 39.4297 120.127 39.2891C119.916 39.1484 119.598 39.0781 119.173 39.0781H118.556V40.9453ZM118.556 41.7188V44H117.623V38.2891H119.236C119.973 38.2891 120.518 38.4271 120.873 38.7031C121.227 38.9792 121.404 39.3958 121.404 39.9531C121.404 40.6641 121.034 41.1706 120.295 41.4727L121.908 44H120.845L119.478 41.7188H118.556ZM126.723 44L126.153 42.4141H123.969L123.41 44H122.426L124.563 38.2656H125.578L127.715 44H126.723ZM125.906 41.6094L125.371 40.0547C125.332 39.9505 125.278 39.7865 125.207 39.5625C125.139 39.3385 125.093 39.1745 125.067 39.0703C124.996 39.3906 124.893 39.7409 124.758 40.1211L124.242 41.6094H125.906ZM128.909 44V38.2891H129.842V43.1992H132.26V44H128.909ZM137.129 44H136.203V38.2891H139.426V39.0781H137.129V40.8633H139.281V41.6562H137.129V44ZM144.444 44L143.873 42.4141H141.69L141.131 44H140.147L142.284 38.2656H143.299L145.436 44H144.444ZM143.627 41.6094L143.092 40.0547C143.053 39.9505 142.998 39.7865 142.928 39.5625C142.86 39.3385 142.814 39.1745 142.787 39.0703C142.717 39.3906 142.614 39.7409 142.479 40.1211L141.963 41.6094H143.627ZM149.099 44L147.442 39.2305H147.411C147.455 39.9388 147.478 40.6029 147.478 41.2227V44H146.63V38.2891H147.946L149.532 42.832H149.556L151.188 38.2891H152.509V44H151.61V41.1758C151.61 40.8919 151.617 40.5221 151.63 40.0664C151.645 39.6107 151.658 39.3346 151.669 39.2383H151.638L149.923 44H149.099ZM154.453 44V38.2891H155.386V44H154.453ZM157.338 44V38.2891H158.272V43.1992H160.69V44H157.338ZM163.727 40.8945L165.079 38.2891H166.094L164.192 41.7852V44H163.255V41.8164L161.36 38.2891H162.376L163.727 40.8945Z" fill="white"/>
<defs>
<linearGradient id="paint0_linear" x1="2.52703" y1="24" x2="259.464" y2="24" gradientUnits="userSpaceOnUse">
<stop/>
<stop offset="0.211169"/>
<stop offset="0.277796" stop-color="white"/>
<stop offset="0.354175" stop-color="white"/>
<stop offset="0.645833" stop-color="white"/>
<stop offset="0.895833" stop-color="white"/>
</linearGradient>
</defs>
</svg>
