<svg width="34" height="34" viewBox="0 0 34 34" fill="none" xmlns="http://www.w3.org/2000/svg">
<g clip-path="url(#clip0)">
<path d="M3.35195 3.36747C7.51799 -0.804181 14.1668 -1.14137 18.7337 2.58689C23.3007 6.31544 24.3007 12.897 21.0474 17.8138C18.6325 21.4633 14.3529 23.4221 10.0125 22.8648C5.67215 22.3076 2.02591 19.331 0.611366 15.19C-0.803177 11.0491 0.259721 6.46382 3.35195 3.36747V3.36747ZM5.05943 17.8917C8.59859 21.4305 14.3364 21.4305 17.8756 17.8914C21.4144 14.3522 21.4144 8.6144 17.8756 5.07524C14.3364 1.53608 8.59859 1.53579 5.05943 5.07495C3.35313 6.77092 2.39348 9.07756 2.39348 11.4833C2.39348 13.8891 3.35313 16.1957 5.05943 17.8917Z" fill="white"/>
<path d="M33.109 28.8525C34.2798 30.0337 34.2757 31.9392 33.0995 33.1153C31.9236 34.2912 30.0182 34.2954 28.837 33.1245L20.866 25.1538L25.1383 20.8818L33.109 28.8525Z" fill="white"/>
<path d="M19.5901 21.222C19.8813 20.9801 20.1666 20.7246 20.4359 20.4541C20.7055 20.1833 20.961 19.8962 21.2056 19.6045C21.2728 19.5236 21.338 19.4419 21.4032 19.3599C21.4776 19.2667 21.5566 19.1785 21.628 19.082L23.4302 20.8836L20.8678 23.4457L19.0662 21.6477C19.1606 21.5772 19.2476 21.4981 19.3429 21.4243C19.4258 21.3553 19.5084 21.2901 19.5901 21.222V21.222Z" fill="white"/>
</g>
<defs>
<clipPath id="clip0">
<rect width="34" height="34" fill="white" transform="matrix(-1 0 0 1 34 0)"/>
</clipPath>
</defs>
</svg>
