<svg width="32" height="32" viewBox="0 0 32 32" fill="none" xmlns="http://www.w3.org/2000/svg">
<path d="M26.6667 18.9555V17.5452L30.96 8.34289C31.6324 6.9 31.999 5.10847 32 3.26176C31.9993 1.46091 31.1478 0.00130328 30.0973 1.75734e-05H25.42C24.6977 -0.00416099 24.0449 0.737159 23.7653 1.87887C22.8608 6.1439 21.6706 10.2146 20.2186 14.0091C19.7717 14.6103 19.1559 14.6827 18.6653 14.192V2.50062C18.6609 1.12362 18.0112 0.00880327 17.208 1.75734e-05H11.3333C10.9651 -0.001161 10.6661 0.509695 10.6654 1.14087C10.6651 1.44516 10.7356 1.73712 10.8613 1.95205L11.2266 2.5783C11.7228 3.42387 12.0013 4.57436 11.9999 5.77372V14.4594C11.9374 14.5688 11.8569 14.643 11.7693 14.672C11.5219 14.6066 11.2973 14.3868 11.1386 14.0549C9.42275 9.78782 7.9035 5.29801 6.59456 0.626373C6.481 0.24216 6.25113 0.000124657 5.99988 0.000124657H1.73331C0.776065 0.000124657 2.41429e-06 1.33041 2.41429e-06 2.97151V3.55437C-0.00112259 5.96507 0.39094 8.32832 1.132 10.3772C4.708 20.24 9.612 32 12.6667 32H17.028C17.9324 31.9975 18.6652 30.7413 18.6667 29.1908V27.2343C18.6664 26.0805 19.2118 25.1447 19.8848 25.1442C20.2087 25.144 20.5192 25.3647 20.748 25.7577L23.516 30.5029C24.0754 31.4648 24.8357 32.0037 25.628 32H30.3853C31.2756 31.9977 31.9962 30.7587 31.9949 29.2325C31.9943 28.502 31.825 27.8016 31.524 27.2845L26.6667 18.9555Z" fill="#01579B"/>
</svg>
