<svg width="32" height="32" viewBox="0 0 32 32" fill="none" xmlns="http://www.w3.org/2000/svg">
<g clip-path="url(#clip0)">
<path d="M26.6667 17.724V16.9013L30.96 11.5333C31.6324 10.6916 31.999 9.64657 32 8.56932C31.9992 7.51882 31.1478 6.66739 30.0973 6.66664H25.42C24.6977 6.6642 24.0449 7.09664 23.7653 7.76264C22.8608 10.2506 21.6706 12.6251 20.2186 14.8386C19.7717 15.1893 19.1559 15.2316 18.6653 14.9453V8.12532C18.6609 7.32207 18.0112 6.67176 17.208 6.66664H11.3333C10.9651 6.66595 10.6661 6.96395 10.6654 7.33214C10.6651 7.50964 10.7356 7.67995 10.8613 7.80532L11.2266 8.17064C11.7228 8.66389 12.0012 9.33501 11.9999 10.0346V15.1013C11.9374 15.1651 11.8569 15.2084 11.7692 15.2253C11.5219 15.1871 11.2972 15.059 11.1386 14.8653C9.42275 12.3762 7.9035 9.75714 6.59456 7.03201C6.481 6.80789 6.25112 6.6667 5.99987 6.6667H1.73331C0.776061 6.6667 -1.4004e-06 7.4427 -1.4004e-06 8.40001V8.74001C-0.0011264 10.1463 0.390936 11.5248 1.132 12.72C4.708 18.4733 9.612 25.3333 12.6667 25.3333H17.028C17.9324 25.3319 18.6652 24.5991 18.6667 23.6946V22.5533C18.6664 21.8803 19.2117 21.3344 19.8848 21.3341C20.2087 21.334 20.5192 21.4628 20.748 21.692L23.516 24.46C24.0754 25.0211 24.8357 25.3355 25.628 25.3333H30.3853C31.2756 25.332 31.9962 24.6093 31.9949 23.719C31.9943 23.2928 31.825 22.8843 31.524 22.5826L26.6667 17.724Z" fill="#01579B"/>
</g>
<defs>
<clipPath id="clip0">
<rect width="32" height="32" fill="white"/>
</clipPath>
</defs>
</svg>
